<svg xmlns="http://www.w3.org/2000/svg" version="1.1" xmlns:xlink="http://www.w3.org/1999/xlink" xmlns:svgjs="http://svgjs.dev/svgjs" width="2000" height="1247" viewBox="0 0 2000 1247"><g transform="matrix(1,0,0,1,-1.2121212121212466,0.504858299595071)"><svg viewBox="0 0 396 247" data-background-color="#ffffff" preserveAspectRatio="xMidYMid meet" height="1247" width="2000" xmlns="http://www.w3.org/2000/svg" xmlns:xlink="http://www.w3.org/1999/xlink"><g id="tight-bounds" transform="matrix(1,0,0,1,0.2400000000000091,-0.09999999999999432)"><svg viewBox="0 0 395.52 247.2" height="247.2" width="395.52"><rect width="395.52" height="247.2" fill="url(#e71a7ed7-c709-4b71-b21f-8d4798da98ca)" mask="url(#7234c19c-6754-4c0d-bfce-3a9d8f7b8e97)" data-fill-palette-color="tertiary"></rect><g><svg></svg></g><g><svg viewBox="0 0 395.52 247.2" height="247.2" width="395.52"><g transform="matrix(1,0,0,1,75.54432000000001,96.03823901002774)"><svg viewBox="0 0 244.43135999999996 55.12352197994451" height="55.12352197994451" width="244.43135999999996"><g><svg viewBox="0 0 244.43135999999996 55.12352197994451" height="55.12352197994451" width="244.43135999999996"><g><svg viewBox="0 0 244.43135999999996 55.12352197994451" height="55.12352197994451" width="244.43135999999996"><g><svg viewBox="0 0 244.43135999999996 55.12352197994451" height="55.12352197994451" width="244.43135999999996"><g id="textblocktransform"><svg viewBox="0 0 244.43135999999996 55.12352197994451" height="55.12352197994451" width="244.43135999999996" id="textblock"><g><svg viewBox="0 0 244.43135999999996 55.12352197994451" height="55.12352197994451" width="244.43135999999996"><g transform="matrix(1,0,0,1,0,0)"><svg width="244.43135999999996" viewBox="3.45 -39.2 234.33 52.85" height="55.12352197994451" data-palette-color="url(#bca3f3bb-b112-4204-94d4-822a4f5f9887)"></svg></g></svg></g></svg></g></svg></g></svg></g></svg></g></svg></g><path d="M194.986 90.038L194.986 30.436 8.658 30.436 8.658 216.764 194.986 216.764 194.986 157.162 190.015 157.162 190.015 211.793 13.629 211.793 13.629 35.407 190.015 35.407 190.015 90.038Z" fill="url(#e71a7ed7-c709-4b71-b21f-8d4798da98ca)" stroke="transparent" data-fill-palette-color="tertiary"></path></svg></g><defs></defs><mask id="1a880d2f-9602-4407-8682-19d732863fa5"><g id="SvgjsG1152"><svg viewBox="0 0 395.52 247.2" height="247.2" width="395.52"><g><svg></svg></g><g><svg viewBox="0 0 395.52 247.2" height="247.2" width="395.52"><g transform="matrix(1,0,0,1,75.54432000000001,96.03823901002774)"><svg viewBox="0 0 244.43135999999996 55.12352197994451" height="55.12352197994451" width="244.43135999999996"><g><svg viewBox="0 0 244.43135999999996 55.12352197994451" height="55.12352197994451" width="244.43135999999996"><g><svg viewBox="0 0 244.43135999999996 55.12352197994451" height="55.12352197994451" width="244.43135999999996"><g><svg viewBox="0 0 244.43135999999996 55.12352197994451" height="55.12352197994451" width="244.43135999999996"><g id="SvgjsG1151"><svg viewBox="0 0 244.43135999999996 55.12352197994451" height="55.12352197994451" width="244.43135999999996" id="SvgjsSvg1150"><g><svg viewBox="0 0 244.43135999999996 55.12352197994451" height="55.12352197994451" width="244.43135999999996"><g transform="matrix(1,0,0,1,0,0)"><svg width="244.43135999999996" viewBox="3.45 -39.2 234.33 52.85" height="55.12352197994451" data-palette-color="url(#bca3f3bb-b112-4204-94d4-822a4f5f9887)"><path d="M3.45-34.9L10.45-34.9 10.45 0 3.45 0 3.45-34.9ZM51.75-28.1Q56.85-28.1 59.97-24.98 63.1-21.85 63.1-16.25L63.1-16.25 63.1 0 56.1 0 56.1-15.3Q56.1-18.55 54.45-20.28 52.8-22 49.95-22L49.95-22Q47.1-22 45.42-20.28 43.75-18.55 43.75-15.3L43.75-15.3 43.75 0 36.75 0 36.75-15.3Q36.75-18.55 35.1-20.28 33.45-22 30.6-22L30.6-22Q27.7-22 26.02-20.28 24.35-18.55 24.35-15.3L24.35-15.3 24.35 0 17.35 0 17.35-27.7 24.35-27.7 24.35-24.35Q25.7-26.1 27.82-27.1 29.95-28.1 32.5-28.1L32.5-28.1Q35.75-28.1 38.3-26.73 40.85-25.35 42.25-22.8L42.25-22.8Q43.6-25.2 46.17-26.65 48.75-28.1 51.75-28.1L51.75-28.1ZM76.75-34.9L76.75-5.55 88.25-5.55 88.25 0 69.75 0 69.75-34.9 76.75-34.9ZM96.24-31Q94.39-31 93.17-32.18 91.94-33.35 91.94-35.1L91.94-35.1Q91.94-36.85 93.17-38.02 94.39-39.2 96.24-39.2L96.24-39.2Q98.09-39.2 99.32-38.02 100.54-36.85 100.54-35.1L100.54-35.1Q100.54-33.35 99.32-32.18 98.09-31 96.24-31L96.24-31ZM92.69-27.7L99.69-27.7 99.69 0 92.69 0 92.69-27.7ZM117.19 0.45Q113.79 0.45 111.09-0.78 108.39-2 106.82-4.1 105.24-6.2 105.09-8.75L105.09-8.75 112.14-8.75Q112.34-7.15 113.72-6.1 115.09-5.05 117.14-5.05L117.14-5.05Q119.14-5.05 120.27-5.85 121.39-6.65 121.39-7.9L121.39-7.9Q121.39-9.25 120.02-9.93 118.64-10.6 115.64-11.4L115.64-11.4Q112.54-12.15 110.57-12.95 108.59-13.75 107.17-15.4 105.74-17.05 105.74-19.85L105.74-19.85Q105.74-22.15 107.07-24.05 108.39-25.95 110.87-27.05 113.34-28.15 116.69-28.15L116.69-28.15Q121.64-28.15 124.59-25.68 127.54-23.2 127.84-19L127.84-19 121.14-19Q120.99-20.65 119.77-21.63 118.54-22.6 116.49-22.6L116.49-22.6Q114.59-22.6 113.57-21.9 112.54-21.2 112.54-19.95L112.54-19.95Q112.54-18.55 113.94-17.82 115.34-17.1 118.29-16.35L118.29-16.35Q121.29-15.6 123.24-14.8 125.19-14 126.62-12.33 128.04-10.65 128.09-7.9L128.09-7.9Q128.09-5.5 126.77-3.6 125.44-1.7 122.97-0.63 120.49 0.45 117.19 0.45L117.19 0.45ZM136.94 0.35Q135.04 0.35 133.81-0.83 132.59-2 132.59-3.75L132.59-3.75Q132.59-5.5 133.81-6.68 135.04-7.85 136.94-7.85L136.94-7.85Q138.79-7.85 139.99-6.68 141.19-5.5 141.19-3.75L141.19-3.75Q141.19-2 139.99-0.83 138.79 0.35 136.94 0.35L136.94 0.35ZM172.59-14.45Q172.59-12.95 172.39-11.75L172.39-11.75 152.14-11.75Q152.39-8.75 154.24-7.05 156.09-5.35 158.79-5.35L158.79-5.35Q162.69-5.35 164.34-8.7L164.34-8.7 171.89-8.7Q170.69-4.7 167.29-2.13 163.89 0.45 158.94 0.45L158.94 0.45Q154.94 0.45 151.76-1.33 148.59-3.1 146.81-6.35 145.04-9.6 145.04-13.85L145.04-13.85Q145.04-18.15 146.79-21.4 148.54-24.65 151.69-26.4 154.84-28.15 158.94-28.15L158.94-28.15Q162.89-28.15 166.01-26.45 169.14-24.75 170.86-21.63 172.59-18.5 172.59-14.45L172.59-14.45ZM152.19-16.45L165.34-16.45Q165.29-19.15 163.39-20.78 161.49-22.4 158.74-22.4L158.74-22.4Q156.14-22.4 154.36-20.83 152.59-19.25 152.19-16.45L152.19-16.45ZM193.03-28.1Q197.98-28.1 201.03-24.98 204.08-21.85 204.08-16.25L204.08-16.25 204.08 0 197.08 0 197.08-15.3Q197.08-18.6 195.43-20.38 193.78-22.15 190.93-22.15L190.93-22.15Q188.03-22.15 186.36-20.38 184.68-18.6 184.68-15.3L184.68-15.3 184.68 0 177.68 0 177.68-27.7 184.68-27.7 184.68-24.25Q186.08-26.05 188.26-27.08 190.43-28.1 193.03-28.1L193.03-28.1ZM221.58-28.15Q224.68-28.15 227.03-26.93 229.38-25.7 230.73-23.75L230.73-23.75 230.73-27.7 237.78-27.7 237.78 0.2Q237.78 4.05 236.23 7.08 234.68 10.1 231.58 11.88 228.48 13.65 224.08 13.65L224.08 13.65Q218.18 13.65 214.41 10.9 210.63 8.15 210.13 3.4L210.13 3.4 217.08 3.4Q217.63 5.3 219.46 6.43 221.28 7.55 223.88 7.55L223.88 7.55Q226.93 7.55 228.83 5.73 230.73 3.9 230.73 0.2L230.73 0.2 230.73-4.1Q229.38-2.15 227.01-0.85 224.63 0.45 221.58 0.45L221.58 0.45Q218.08 0.45 215.18-1.35 212.28-3.15 210.61-6.43 208.93-9.7 208.93-13.95L208.93-13.95Q208.93-18.15 210.61-21.4 212.28-24.65 215.16-26.4 218.03-28.15 221.58-28.15L221.58-28.15ZM230.73-13.85Q230.73-16.4 229.73-18.23 228.73-20.05 227.03-21.03 225.33-22 223.38-22L223.38-22Q221.43-22 219.78-21.05 218.13-20.1 217.11-18.28 216.08-16.45 216.08-13.95L216.08-13.95Q216.08-11.45 217.11-9.58 218.13-7.7 219.81-6.7 221.48-5.7 223.38-5.7L223.38-5.7Q225.33-5.7 227.03-6.68 228.73-7.65 229.73-9.47 230.73-11.3 230.73-13.85L230.73-13.85Z" opacity="1" transform="matrix(1,0,0,1,0,0)" fill="white" class="wordmark-text-0" id="SvgjsPath1149"></path></svg></g></svg></g></svg></g></svg></g></svg></g></svg></g></svg></g><path d="M194.986 90.038L194.986 30.436 8.658 30.436 8.658 216.764 194.986 216.764 194.986 157.162 190.015 157.162 190.015 211.793 13.629 211.793 13.629 35.407 190.015 35.407 190.015 90.038Z" fill="black" stroke="transparent"></path></svg></g><defs><mask></mask></defs></svg><rect width="395.52" height="247.2" fill="black" stroke="none" visibility="hidden"></rect></g></mask><linearGradient x1="0" x2="1" y1="0.5" y2="0.5" id="bca3f3bb-b112-4204-94d4-822a4f5f9887"><stop stop-color="#f00b51" offset="0"></stop><stop stop-color="#730062" offset="1"></stop></linearGradient><rect width="395.52" height="247.2" fill="url(#bca3f3bb-b112-4204-94d4-822a4f5f9887)" mask="url(#1a880d2f-9602-4407-8682-19d732863fa5)" data-fill-palette-color="primary"></rect><mask id="7234c19c-6754-4c0d-bfce-3a9d8f7b8e97"><g id="SvgjsG1159"><svg viewBox="0 0 395.52 247.2" height="247.2" width="395.52"><g><svg></svg></g><g><svg viewBox="0 0 395.52 247.2" height="247.2" width="395.52"><g transform="matrix(1,0,0,1,75.54432000000001,96.03823901002774)"><svg viewBox="0 0 244.43135999999996 55.12352197994451" height="55.12352197994451" width="244.43135999999996"><g><svg viewBox="0 0 244.43135999999996 55.12352197994451" height="55.12352197994451" width="244.43135999999996"><g><svg viewBox="0 0 244.43135999999996 55.12352197994451" height="55.12352197994451" width="244.43135999999996"><g><svg viewBox="0 0 244.43135999999996 55.12352197994451" height="55.12352197994451" width="244.43135999999996"><g id="SvgjsG1158"><svg viewBox="0 0 244.43135999999996 55.12352197994451" height="55.12352197994451" width="244.43135999999996" id="SvgjsSvg1157"><g><svg viewBox="0 0 244.43135999999996 55.12352197994451" height="55.12352197994451" width="244.43135999999996"><g transform="matrix(1,0,0,1,0,0)"><svg width="244.43135999999996" viewBox="3.45 -39.2 234.33 52.85" height="55.12352197994451" data-palette-color="url(#bca3f3bb-b112-4204-94d4-822a4f5f9887)"></svg></g></svg></g></svg></g></svg></g></svg></g></svg></g></svg></g><path d="M194.986 90.038L194.986 30.436 8.658 30.436 8.658 216.764 194.986 216.764 194.986 157.162 190.015 157.162 190.015 211.793 13.629 211.793 13.629 35.407 190.015 35.407 190.015 90.038Z" fill="white" stroke="transparent"></path></svg></g><defs><mask></mask></defs><mask><g id="SvgjsG1156"><svg viewBox="0 0 395.52 247.2" height="247.2" width="395.52"><g><svg></svg></g><g><svg viewBox="0 0 395.52 247.2" height="247.2" width="395.52"><g transform="matrix(1,0,0,1,75.54432000000001,96.03823901002774)"><svg viewBox="0 0 244.43135999999996 55.12352197994451" height="55.12352197994451" width="244.43135999999996"><g><svg viewBox="0 0 244.43135999999996 55.12352197994451" height="55.12352197994451" width="244.43135999999996"><g><svg viewBox="0 0 244.43135999999996 55.12352197994451" height="55.12352197994451" width="244.43135999999996"><g><svg viewBox="0 0 244.43135999999996 55.12352197994451" height="55.12352197994451" width="244.43135999999996"><g id="SvgjsG1155"><svg viewBox="0 0 244.43135999999996 55.12352197994451" height="55.12352197994451" width="244.43135999999996" id="SvgjsSvg1154"><g><svg viewBox="0 0 244.43135999999996 55.12352197994451" height="55.12352197994451" width="244.43135999999996"><g transform="matrix(1,0,0,1,0,0)"><svg width="244.43135999999996" viewBox="3.45 -39.2 234.33 52.85" height="55.12352197994451" data-palette-color="url(#bca3f3bb-b112-4204-94d4-822a4f5f9887)"><path d="M3.45-34.9L10.45-34.9 10.45 0 3.45 0 3.45-34.9ZM51.75-28.1Q56.85-28.1 59.97-24.98 63.1-21.85 63.1-16.25L63.1-16.25 63.1 0 56.1 0 56.1-15.3Q56.1-18.55 54.45-20.28 52.8-22 49.95-22L49.95-22Q47.1-22 45.42-20.28 43.75-18.55 43.75-15.3L43.75-15.3 43.75 0 36.75 0 36.75-15.3Q36.75-18.55 35.1-20.28 33.45-22 30.6-22L30.6-22Q27.7-22 26.02-20.28 24.35-18.55 24.35-15.3L24.35-15.3 24.35 0 17.35 0 17.35-27.7 24.35-27.7 24.35-24.35Q25.7-26.1 27.82-27.1 29.95-28.1 32.5-28.1L32.5-28.1Q35.75-28.1 38.3-26.73 40.85-25.35 42.25-22.8L42.25-22.8Q43.6-25.2 46.17-26.65 48.75-28.1 51.75-28.1L51.75-28.1ZM76.75-34.9L76.75-5.55 88.25-5.55 88.25 0 69.75 0 69.75-34.9 76.75-34.9ZM96.24-31Q94.39-31 93.17-32.18 91.94-33.35 91.94-35.1L91.94-35.1Q91.94-36.85 93.17-38.02 94.39-39.2 96.24-39.2L96.24-39.2Q98.09-39.2 99.32-38.02 100.54-36.85 100.54-35.1L100.54-35.1Q100.54-33.35 99.32-32.18 98.09-31 96.24-31L96.24-31ZM92.69-27.7L99.69-27.7 99.69 0 92.69 0 92.69-27.7ZM117.19 0.45Q113.79 0.45 111.09-0.78 108.39-2 106.82-4.1 105.24-6.2 105.09-8.75L105.09-8.75 112.14-8.75Q112.34-7.15 113.72-6.1 115.09-5.05 117.14-5.05L117.14-5.05Q119.14-5.05 120.27-5.85 121.39-6.65 121.39-7.9L121.39-7.9Q121.39-9.25 120.02-9.93 118.64-10.6 115.64-11.4L115.64-11.4Q112.54-12.15 110.57-12.95 108.59-13.75 107.17-15.4 105.74-17.05 105.74-19.85L105.74-19.85Q105.74-22.15 107.07-24.05 108.39-25.95 110.87-27.05 113.34-28.15 116.69-28.15L116.69-28.15Q121.64-28.15 124.59-25.68 127.54-23.2 127.84-19L127.84-19 121.14-19Q120.99-20.65 119.77-21.63 118.54-22.6 116.49-22.6L116.49-22.6Q114.59-22.6 113.57-21.9 112.54-21.2 112.54-19.95L112.54-19.95Q112.54-18.55 113.94-17.82 115.34-17.1 118.29-16.35L118.29-16.35Q121.29-15.6 123.24-14.8 125.19-14 126.62-12.33 128.04-10.65 128.09-7.9L128.09-7.9Q128.09-5.5 126.77-3.6 125.44-1.7 122.97-0.63 120.49 0.45 117.19 0.45L117.19 0.45ZM136.94 0.35Q135.04 0.35 133.81-0.83 132.59-2 132.59-3.75L132.59-3.75Q132.59-5.5 133.81-6.68 135.04-7.85 136.94-7.85L136.94-7.85Q138.79-7.85 139.99-6.68 141.19-5.5 141.19-3.75L141.19-3.75Q141.19-2 139.99-0.83 138.79 0.35 136.94 0.35L136.94 0.35ZM172.59-14.45Q172.59-12.95 172.39-11.75L172.39-11.75 152.14-11.75Q152.39-8.75 154.24-7.05 156.09-5.35 158.79-5.35L158.79-5.35Q162.69-5.35 164.34-8.7L164.34-8.7 171.89-8.7Q170.69-4.7 167.29-2.13 163.89 0.45 158.94 0.45L158.94 0.45Q154.94 0.45 151.76-1.33 148.59-3.1 146.81-6.35 145.04-9.6 145.04-13.85L145.04-13.85Q145.04-18.15 146.79-21.4 148.54-24.65 151.69-26.4 154.84-28.15 158.94-28.15L158.94-28.15Q162.89-28.15 166.01-26.45 169.14-24.75 170.86-21.63 172.59-18.5 172.59-14.45L172.59-14.45ZM152.19-16.45L165.34-16.45Q165.29-19.15 163.39-20.78 161.49-22.4 158.74-22.4L158.74-22.4Q156.14-22.4 154.36-20.83 152.59-19.25 152.19-16.45L152.19-16.45ZM193.03-28.1Q197.98-28.1 201.03-24.98 204.08-21.85 204.08-16.25L204.08-16.25 204.08 0 197.08 0 197.08-15.3Q197.08-18.6 195.43-20.38 193.78-22.15 190.93-22.15L190.93-22.15Q188.03-22.15 186.36-20.38 184.68-18.6 184.68-15.3L184.68-15.3 184.68 0 177.68 0 177.68-27.7 184.68-27.7 184.68-24.25Q186.08-26.05 188.26-27.08 190.43-28.1 193.03-28.1L193.03-28.1ZM221.58-28.15Q224.68-28.15 227.03-26.93 229.38-25.7 230.73-23.75L230.73-23.75 230.73-27.7 237.78-27.7 237.78 0.2Q237.78 4.05 236.23 7.08 234.68 10.1 231.58 11.88 228.48 13.65 224.08 13.65L224.08 13.65Q218.18 13.65 214.41 10.9 210.63 8.15 210.13 3.4L210.13 3.4 217.08 3.4Q217.63 5.3 219.46 6.43 221.28 7.55 223.88 7.55L223.88 7.55Q226.93 7.55 228.83 5.73 230.73 3.9 230.73 0.2L230.73 0.2 230.73-4.1Q229.38-2.15 227.01-0.85 224.63 0.45 221.58 0.45L221.58 0.45Q218.08 0.45 215.18-1.35 212.28-3.15 210.61-6.43 208.93-9.7 208.93-13.95L208.93-13.95Q208.93-18.15 210.61-21.4 212.28-24.65 215.16-26.4 218.03-28.15 221.58-28.15L221.58-28.15ZM230.73-13.85Q230.73-16.4 229.73-18.23 228.73-20.05 227.03-21.03 225.33-22 223.38-22L223.38-22Q221.43-22 219.78-21.05 218.13-20.1 217.11-18.28 216.08-16.45 216.08-13.95L216.08-13.95Q216.08-11.45 217.11-9.58 218.13-7.7 219.81-6.7 221.48-5.7 223.38-5.7L223.38-5.7Q225.33-5.7 227.03-6.68 228.73-7.65 229.73-9.47 230.73-11.3 230.73-13.85L230.73-13.85Z" opacity="1" transform="matrix(1,0,0,1,0,0)" fill="black" class="wordmark-text-0" id="SvgjsPath1153"></path></svg></g></svg></g></svg></g></svg></g></svg></g></svg></g></svg></g><path d="M194.986 90.038L194.986 30.436 8.658 30.436 8.658 216.764 194.986 216.764 194.986 157.162 190.015 157.162 190.015 211.793 13.629 211.793 13.629 35.407 190.015 35.407 190.015 90.038Z" fill="black" stroke="transparent"></path></svg></g><defs><mask></mask></defs></svg><rect width="395.52" height="247.2" fill="black" stroke="none" visibility="hidden"></rect></g></mask></svg><rect width="395.52" height="247.2" fill="black" stroke="none" visibility="hidden"></rect></g></mask><linearGradient x1="0" x2="1" y1="0.5" y2="0.5" id="e71a7ed7-c709-4b71-b21f-8d4798da98ca"><stop stop-color="#f00b51" offset="0"></stop><stop stop-color="#730062" offset="1"></stop></linearGradient></svg><rect width="395.52" height="247.2" fill="none" stroke="none" visibility="hidden"></rect></g></svg></g></svg>